--40004LOG 11:56:38:078208500 Waiting for file /home/seluser/videos/vid_chrome_or_firefox_40004* to be created...
Won't start video recording due to VIDEO env var false
ffmpeg version 2.8.17-0ubuntu0.1 Copyright (c) 2000-2020 the FFmpeg developers
  built with gcc 5.4.0 (Ubuntu 5.4.0-6ubuntu1~16.04.12) 20160609
  configuration: --prefix=/usr --extra-version=0ubuntu0.1 --build-suffix=-ffmpeg --toolchain=hardened --libdir=/usr/lib/x86_64-linux-gnu --incdir=/usr/include/x86_64-linux-gnu --cc=cc --cxx=g++ --enable-gpl --enable-shared --disable-stripping --disable-decoder=libopenjpeg --disable-decoder=libschroedinger --enable-avresample --enable-avisynth --enable-gnutls --enable-ladspa --enable-libass --enable-libbluray --enable-libbs2b --enable-libcaca --enable-libcdio --enable-libflite --enable-libfontconfig --enable-libfreetype --enable-libfribidi --enable-libgme --enable-libgsm --enable-libmodplug --enable-libmp3lame --enable-libopenjpeg --enable-libopus --enable-libpulse --enable-librtmp --enable-libschroedinger --enable-libshine --enable-libsnappy --enable-libsoxr --enable-libspeex --enable-libssh --enable-libtheora --enable-libtwolame --enable-libvorbis --enable-libvpx --enable-libwavpack --enable-libwebp --enable-libx265 --enable-libxvid --enable-libzvbi --enable-openal --enable-opengl --enable-x11grab --enable-libdc1394 --enable-libiec61883 --enable-libzmq --enable-frei0r --enable-libx264 --enable-libopencv
  libavutil      54. 31.100 / 54. 31.100
  libavcodec     56. 60.100 / 56. 60.100
  libavformat    56. 40.101 / 56. 40.101
  libavdevice    56.  4.100 / 56.  4.100
  libavfilter     5. 40.101 /  5. 40.101
  libavresample   2.  1.  0 /  2.  1.  0
  libswscale      3.  1.101 /  3.  1.101
  libswresample   1.  2.101 /  1.  2.101
  libpostproc    53.  3.100 / 53.  3.100
Input #0, x11grab, from ':78.0':
  Duration: N/A, start: 1603878998.526423, bitrate: N/A
    Stream #0:0: Video: rawvideo (BGR[0] / 0x524742), bgr0, 1366x768, 10 fps, 10 tbr, 1000k tbn, 10 tbc
[libx264 @ 0xa24320] using cpu capabilities: MMX2 SSE2Fast SSSE3 SSE4.2 AVX FMA3 AVX2 LZCNT BMI2
[libx264 @ 0xa24320] profile Constrained Baseline, level 3.2
[libx264 @ 0xa24320] 264 - core 148 r2643 5c65704 - H.264/MPEG-4 AVC codec - Copyleft 2003-2015 - http://www.videolan.org/x264.html - options: cabac=0 ref=1 deblock=0:0:0 analyse=0:0 me=dia subme=0 psy=1 psy_rd=1.00:0.00 mixed_ref=0 me_range=16 chroma_me=1 trellis=0 8x8dct=0 cqm=0 deadzone=21,11 fast_pskip=1 chroma_qp_offset=0 threads=3 lookahead_threads=1 sliced_threads=0 nr=0 decimate=1 interlaced=0 bluray_compat=0 constrained_intra=0 bframes=0 weightp=0 keyint=250 keyint_min=10 scenecut=0 intra_refresh=0 rc=crf mbtree=0 crf=23.0 qcomp=0.60 qpmin=0 qpmax=69 qpstep=4 ip_ratio=1.40 aq=0
Output #0, matroska, to '/home/seluser/videos/vid_chrome_or_firefox_40004.mkv':
  Metadata:
    encoder         : Lavf56.40.101
    Stream #0:0: Video: h264 (libx264) (H264 / 0x34363248), yuv420p, 1366x768, q=-1--1, 10 fps, 1k tbn, 10 tbc
    Metadata:
      encoder         : Lavc56.60.100 libx264
Stream mapping:
  Stream #0:0 -> #0:0 (rawvideo (native) -> h264 (libx264))
Press [q] to stop, [?] for help
[swscaler @ 0xa2fca0] Warning: data is not aligned! This can lead to a speedloss
frame=    3 fps=0.0 q=0.0 size=       1kB time=00:00:00.00 bitrate=N/A    
frame=    6 fps=4.0 q=11.0 size=      27kB time=00:00:00.20 bitrate=1118.8kbits/s    
frame=    9 fps=4.3 q=9.0 size=      38kB time=00:00:00.50 bitrate= 618.9kbits/s    
frame=   23 fps=8.8 q=9.0 size=      41kB time=00:00:01.90 bitrate= 178.5kbits/s    
frame=   38 fps= 12 q=12.0 size=     152kB time=00:00:03.40 bitrate= 366.3kbits/s    
frame=   44 fps= 11 q=10.0 size=     160kB time=00:00:04.00 bitrate= 328.0kbits/s    
frame=   48 fps= 11 q=9.0 size=     161kB time=00:00:04.40 bitrate= 299.7kbits/s    
frame=   50 fps= 10 q=10.0 size=     161kB time=00:00:04.60 bitrate= 287.0kbits/s    
frame=   53 fps=9.8 q=9.0 size=     162kB time=00:00:04.90 bitrate= 271.5kbits/s    
frame=   57 fps=9.5 q=9.0 size=     163kB time=00:00:05.30 bitrate= 251.5kbits/s    
frame=   60 fps=8.9 q=20.0 size=     163kB time=00:00:05.60 bitrate= 238.2kbits/s    
frame=   64 fps=8.7 q=12.0 size=     226kB time=00:00:06.00 bitrate= 308.9kbits/s    
frame=   68 fps=8.5 q=11.0 size=     257kB time=00:00:06.40 bitrate= 329.3kbits/s    
frame=   71 fps=8.2 q=10.0 size=     264kB time=00:00:06.70 bitrate= 322.7kbits/s    
frame=   73 fps=7.9 q=9.0 size=     264kB time=00:00:06.90 bitrate= 313.6kbits/s    
frame=   77 fps=7.9 q=9.0 size=     268kB time=00:00:07.30 bitrate= 301.1kbits/s    
frame=   85 fps=8.2 q=9.0 size=     269kB time=00:00:08.10 bitrate= 271.6kbits/s    
frame=   92 fps=8.5 q=9.0 size=     276kB time=00:00:08.80 bitrate= 256.5kbits/s    
frame=   99 fps=8.7 q=9.0 size=     284kB time=00:00:09.50 bitrate= 245.2kbits/s    
frame=  108 fps=9.1 q=9.0 size=     310kB time=00:00:10.40 bitrate= 244.2kbits/s    
frame=  127 fps= 10 q=9.0 size=     313kB time=00:00:12.30 bitrate= 208.4kbits/s    
frame=  138 fps= 11 q=9.0 size=     313kB time=00:00:13.40 bitrate= 191.6kbits/s    
frame=  143 fps= 10 q=9.0 size=     315kB time=00:00:13.90 bitrate= 185.9kbits/s    
frame=  145 fps=9.9 q=11.0 size=     316kB time=00:00:14.10 bitrate= 183.3kbits/s    
frame=  147 fps=9.5 q=11.0 size=     323kB time=00:00:14.30 bitrate= 184.9kbits/s    
frame=  150 fps=9.1 q=10.0 size=     330kB time=00:00:14.60 bitrate= 185.1kbits/s    
frame=  151 fps=8.9 q=9.0 size=     330kB time=00:00:14.70 bitrate= 183.8kbits/s    
frame=  153 fps=8.7 q=9.0 size=     330kB time=00:00:14.90 bitrate= 181.6kbits/s    
frame=  155 fps=8.4 q=10.0 size=     330kB time=00:00:15.10 bitrate= 179.3kbits/s    
frame=  157 fps=8.1 q=10.0 size=     337kB time=00:00:15.30 bitrate= 180.3kbits/s    
frame=  159 fps=7.9 q=9.0 size=     337kB time=00:00:15.50 bitrate= 178.0kbits/s    
frame=  161 fps=7.8 q=9.0 size=     337kB time=00:00:15.70 bitrate= 176.0kbits/s    
frame=  164 fps=7.6 q=9.0 size=     337kB time=00:00:16.00 bitrate= 172.8kbits/s    
frame=  165 fps=7.4 q=9.0 size=     338kB time=00:00:16.10 bitrate= 171.7kbits/s    
frame=  170 fps=7.3 q=9.0 size=     338kB time=00:00:16.60 bitrate= 166.9kbits/s    
frame=  172 fps=7.2 q=9.0 size=     338kB time=00:00:16.80 bitrate= 164.9kbits/s    
frame=  174 fps=7.1 q=9.0 size=     338kB time=00:00:17.00 bitrate= 163.1kbits/s    
frame=  175 fps=7.0 q=9.0 size=     338kB time=00:00:17.10 bitrate= 162.1kbits/s    
frame=  178 fps=6.9 q=9.0 size=     339kB time=00:00:17.40 bitrate= 159.4kbits/s    
frame=  180 fps=6.8 q=9.0 size=     339kB time=00:00:17.60 bitrate= 157.7kbits/s    
frame=  183 fps=6.7 q=9.0 size=     341kB time=00:00:17.90 bitrate= 155.9kbits/s    
frame=  185 fps=6.6 q=9.0 size=     341kB time=00:00:18.10 bitrate= 154.2kbits/s    
frame=  186 fps=6.6 q=9.0 size=     341kB time=00:00:18.20 bitrate= 153.4kbits/s    
frame=  189 fps=6.5 q=9.0 size=     341kB time=00:00:18.50 bitrate= 151.0kbits/s    
frame=  192 fps=6.4 q=9.0 size=     341kB time=00:00:18.80 bitrate= 148.7kbits/s    
frame=  193 fps=6.3 q=9.0 size=     341kB time=00:00:18.90 bitrate= 147.9kbits/s    
frame=  195 fps=6.2 q=9.0 size=     341kB time=00:00:19.10 bitrate= 146.4kbits/s    
frame=  198 fps=6.2 q=9.0 size=     342kB time=00:00:19.40 bitrate= 144.3kbits/s    
frame=  201 fps=6.1 q=9.0 size=     342kB time=00:00:19.70 bitrate= 142.2kbits/s    
frame=  203 fps=6.1 q=9.0 size=     342kB time=00:00:19.90 bitrate= 140.8kbits/s    
frame=  206 fps=6.1 q=9.0 size=     342kB time=00:00:20.20 bitrate= 138.8kbits/s    
frame=  211 fps=6.1 q=9.0 size=     343kB time=00:00:20.70 bitrate= 135.6kbits/s    
frame=  213 fps=6.0 q=9.0 size=     343kB time=00:00:20.90 bitrate= 134.3kbits/s    
frame=  216 fps=6.0 q=9.0 size=     343kB time=00:00:21.20 bitrate= 132.5kbits/s    
frame=  220 fps=6.0 q=9.0 size=     343kB time=00:00:21.60 bitrate= 130.2kbits/s    
frame=  222 fps=5.9 q=11.0 size=     343kB time=00:00:21.80 bitrate= 129.0kbits/s    
frame=  223 fps=5.8 q=10.0 size=     346kB time=00:00:21.90 bitrate= 129.4kbits/s    
frame=  224 fps=5.7 q=10.0 size=     347kB time=00:00:22.00 bitrate= 129.3kbits/s    
frame=  225 fps=5.7 q=9.0 size=     348kB time=00:00:22.10 bitrate= 128.9kbits/s    
frame=  227 fps=5.6 q=9.0 size=     348kB time=00:00:22.30 bitrate= 128.0kbits/s    
frame=  229 fps=5.5 q=9.0 size=     348kB time=00:00:22.50 bitrate= 126.9kbits/s    
frame=  232 fps=5.5 q=9.0 size=     349kB time=00:00:22.80 bitrate= 125.3kbits/s    
frame=  234 fps=5.5 q=9.0 size=     349kB time=00:00:23.00 bitrate= 124.3kbits/s    
frame=  236 fps=5.4 q=9.0 size=     349kB time=00:00:23.20 bitrate= 123.2kbits/s    
frame=  238 fps=5.4 q=9.0 size=     349kB time=00:00:23.40 bitrate= 122.2kbits/s    
frame=  242 fps=5.4 q=9.0 size=     349kB time=00:00:23.80 bitrate= 120.3kbits/s    
frame=  244 fps=5.4 q=9.0 size=     349kB time=00:00:24.00 bitrate= 119.3kbits/s    
frame=  246 fps=5.3 q=9.0 size=     350kB time=00:00:24.20 bitrate= 118.3kbits/s    
frame=  248 fps=5.3 q=9.0 size=     350kB time=00:00:24.40 bitrate= 117.4kbits/s    
frame=  250 fps=5.3 q=9.0 size=     351kB time=00:00:24.60 bitrate= 117.0kbits/s    
frame=  251 fps=5.2 q=9.0 size=     351kB time=00:00:24.70 bitrate= 116.6kbits/s    
frame=  252 fps=5.2 q=9.0 size=     351kB time=00:00:24.80 bitrate= 116.1kbits/s    
frame=  253 fps=5.1 q=6.0 size=     352kB time=00:00:24.90 bitrate= 115.7kbits/s    
frame=  255 fps=5.1 q=17.0 size=     500kB time=00:00:25.10 bitrate= 163.0kbits/s    
frame=  257 fps=5.0 q=13.0 size=     500kB time=00:00:25.30 bitrate= 161.8kbits/s    
frame=  258 fps=5.0 q=12.0 size=     500kB time=00:00:25.40 bitrate= 161.2kbits/s    
frame=  259 fps=4.9 q=11.0 size=     500kB time=00:00:25.50 bitrate= 160.6kbits/s    
frame=  260 fps=4.8 q=10.0 size=     500kB time=00:00:25.60 bitrate= 159.9kbits/s    
frame=  262 fps=4.8 q=9.0 size=     500kB time=00:00:25.80 bitrate= 158.8kbits/s    
frame=  263 fps=4.8 q=9.0 size=     500kB time=00:00:25.90 bitrate= 158.2kbits/s    
frame=  264 fps=4.7 q=9.0 size=     500kB time=00:00:26.00 bitrate= 157.6kbits/s    
frame=  265 fps=4.6 q=9.0 size=     500kB time=00:00:26.10 bitrate= 157.0kbits/s    
frame=  266 fps=4.6 q=9.0 size=     502kB time=00:00:26.20 bitrate= 156.9kbits/s    
frame=  267 fps=4.5 q=9.0 size=     502kB time=00:00:26.30 bitrate= 156.4kbits/s    
frame=  268 fps=4.5 q=9.0 size=     502kB time=00:00:26.40 bitrate= 155.8kbits/s    
frame=  270 fps=4.4 q=9.0 size=     502kB time=00:00:26.60 bitrate= 154.7kbits/s    
frame=  272 fps=4.4 q=9.0 size=     503kB time=00:00:26.80 bitrate= 153.6kbits/s    
frame=  273 fps=4.4 q=9.0 size=     503kB time=00:00:26.90 bitrate= 153.1kbits/s    
frame=  274 fps=4.4 q=9.0 size=     503kB time=00:00:27.00 bitrate= 152.6kbits/s    
frame=  275 fps=4.3 q=9.0 size=     503kB time=00:00:27.10 bitrate= 152.0kbits/s    
frame=  276 fps=4.3 q=9.0 size=     503kB time=00:00:27.20 bitrate= 151.4kbits/s    
frame=  277 fps=4.3 q=9.0 size=     503kB time=00:00:27.30 bitrate= 150.9kbits/s    
frame=  278 fps=4.2 q=9.0 size=     503kB time=00:00:27.40 bitrate= 150.4kbits/s    
frame=  279 fps=4.2 q=9.0 size=     503kB time=00:00:27.50 bitrate= 149.9kbits/s    
frame=  280 fps=4.1 q=10.0 size=     503kB time=00:00:27.60 bitrate= 149.3kbits/s    
frame=  281 fps=4.0 q=9.0 size=     503kB time=00:00:27.70 bitrate= 148.8kbits/s    
frame=  282 fps=4.0 q=9.0 size=     504kB time=00:00:27.80 bitrate= 148.6kbits/s    
frame=  283 fps=3.9 q=9.0 size=     504kB time=00:00:27.90 bitrate= 148.1kbits/s    
frame=  284 fps=3.8 q=9.0 size=     504kB time=00:00:28.00 bitrate= 147.6kbits/s    
frame=  285 fps=3.8 q=9.0 size=     505kB time=00:00:28.10 bitrate= 147.1kbits/s    
frame=  286 fps=3.8 q=9.0 size=     505kB time=00:00:28.20 bitrate= 146.6kbits/s    
frame=  287 fps=3.7 q=9.0 size=     505kB time=00:00:28.30 bitrate= 146.2kbits/s    
frame=  288 fps=3.7 q=9.0 size=     505kB time=00:00:28.40 bitrate= 145.7kbits/s    
frame=  289 fps=3.7 q=9.0 size=     505kB time=00:00:28.50 bitrate= 145.2kbits/s    
frame=  290 fps=3.6 q=9.0 size=     505kB time=00:00:28.60 bitrate= 144.7kbits/s    
frame=  291 fps=3.6 q=9.0 size=     505kB time=00:00:28.70 bitrate= 144.2kbits/s    
frame=  292 fps=3.5 q=9.0 size=     505kB time=00:00:28.80 bitrate= 143.8kbits/s    
frame=  293 fps=3.5 q=9.0 size=     506kB time=00:00:28.90 bitrate= 143.3kbits/s    
frame=  294 fps=3.4 q=9.0 size=     506kB time=00:00:29.00 bitrate= 142.8kbits/s    
frame=  295 fps=3.3 q=9.0 size=     506kB time=00:00:29.10 bitrate= 142.4kbits/s    
frame=  296 fps=3.3 q=9.0 size=     506kB time=00:00:29.20 bitrate= 142.0kbits/s    
frame=  297 fps=3.2 q=9.0 size=     506kB time=00:00:29.30 bitrate= 141.5kbits/s    
frame=  298 fps=3.2 q=9.0 size=     506kB time=00:00:29.40 bitrate= 141.1kbits/s    
frame=  299 fps=3.2 q=9.0 size=     506kB time=00:00:29.50 bitrate= 140.6kbits/s    
frame=  300 fps=3.1 q=9.0 size=     507kB time=00:00:29.60 bitrate= 140.2kbits/s    
frame=  301 fps=3.1 q=9.0 size=     507kB time=00:00:29.70 bitrate= 139.7kbits/s    
frame=  302 fps=3.1 q=9.0 size=     508kB time=00:00:29.80 bitrate= 139.7kbits/s    
frame=  303 fps=3.1 q=9.0 size=     508kB time=00:00:29.90 bitrate= 139.3kbits/s    
frame=  305 fps=3.1 q=9.0 size=     509kB time=00:00:30.10 bitrate= 138.4kbits/s    
frame=  306 fps=3.0 q=9.0 size=     509kB time=00:00:30.20 bitrate= 138.0kbits/s    
frame=  307 fps=3.0 q=9.0 size=     509kB time=00:00:30.30 bitrate= 137.6kbits/s    
frame=  308 fps=3.0 q=9.0 size=     509kB time=00:00:30.40 bitrate= 137.1kbits/s    
frame=  309 fps=3.0 q=9.0 size=     509kB time=00:00:30.50 bitrate= 136.7kbits/s    
frame=  310 fps=2.9 q=9.0 size=     509kB time=00:00:30.60 bitrate= 136.3kbits/s    
frame=  312 fps=2.9 q=9.0 size=     509kB time=00:00:30.80 bitrate= 135.4kbits/s    
frame=  313 fps=2.9 q=9.0 size=     509kB time=00:00:30.90 bitrate= 135.0kbits/s    
frame=  315 fps=2.9 q=9.0 size=     510kB time=00:00:31.10 bitrate= 134.2kbits/s    
frame=  316 fps=2.9 q=9.0 size=     510kB time=00:00:31.20 bitrate= 133.8kbits/s    
frame=  317 fps=2.9 q=9.0 size=     510kB time=00:00:31.30 bitrate= 133.4kbits/s    
frame=  318 fps=2.8 q=9.0 size=     510kB time=00:00:31.40 bitrate= 133.0kbits/s    
frame=  319 fps=2.8 q=9.0 size=     510kB time=00:00:31.50 bitrate= 132.6kbits/s    
frame=  320 fps=2.7 q=9.0 size=     510kB time=00:00:31.60 bitrate= 132.2kbits/s    
frame=  321 fps=2.7 q=9.0 size=     510kB time=00:00:31.70 bitrate= 131.9kbits/s    
frame=  322 fps=2.7 q=9.0 size=     510kB time=00:00:31.80 bitrate= 131.5kbits/s    
frame=  323 fps=2.7 q=9.0 size=     511kB time=00:00:31.90 bitrate= 131.1kbits/s    
frame=  324 fps=2.7 q=9.0 size=     511kB time=00:00:32.00 bitrate= 130.7kbits/s    
frame=  325 fps=2.6 q=9.0 size=     511kB time=00:00:32.10 bitrate= 130.3kbits/s    
frame=  326 fps=2.6 q=10.0 size=     511kB time=00:00:32.20 bitrate= 130.0kbits/s    
frame=  327 fps=2.5 q=10.0 size=     511kB time=00:00:32.30 bitrate= 129.6kbits/s    
frame=  328 fps=2.4 q=9.0 size=     513kB time=00:00:32.40 bitrate= 129.6kbits/s    
frame=  329 fps=2.4 q=9.0 size=     513kB time=00:00:32.50 bitrate= 129.3kbits/s    
frame=  330 fps=2.4 q=9.0 size=     513kB time=00:00:32.60 bitrate= 128.9kbits/s    
frame=  331 fps=2.4 q=9.0 size=     513kB time=00:00:32.70 bitrate= 128.6kbits/s    
frame=  332 fps=2.4 q=9.0 size=     513kB time=00:00:32.80 bitrate= 128.2kbits/s    
frame=  333 fps=2.3 q=9.0 size=     513kB time=00:00:32.90 bitrate= 127.8kbits/s    
frame=  334 fps=2.3 q=9.0 size=     514kB time=00:00:33.00 bitrate= 127.5kbits/s    
frame=  335 fps=2.3 q=9.0 size=     514kB time=00:00:33.10 bitrate= 127.1kbits/s    
frame=  336 fps=2.3 q=9.0 size=     514kB time=00:00:33.20 bitrate= 126.8kbits/s    
frame=  337 fps=2.3 q=9.0 size=     514kB time=00:00:33.30 bitrate= 126.5kbits/s    
frame=  338 fps=2.2 q=9.0 size=     514kB time=00:00:33.40 bitrate= 126.1kbits/s    
frame=  339 fps=2.2 q=9.0 size=     514kB time=00:00:33.50 bitrate= 125.8kbits/s    
frame=  340 fps=2.2 q=9.0 size=     514kB time=00:00:33.60 bitrate= 125.4kbits/s    
frame=  341 fps=2.1 q=9.0 size=     514kB time=00:00:33.70 bitrate= 125.0kbits/s    
frame=  342 fps=2.1 q=9.0 size=     516kB time=00:00:33.80 bitrate= 125.1kbits/s    
frame=  343 fps=2.1 q=9.0 size=     516kB time=00:00:33.90 bitrate= 124.7kbits/s    
frame=  344 fps=2.0 q=9.0 size=     516kB time=00:00:34.00 bitrate= 124.4kbits/s    
frame=  345 fps=2.0 q=9.0 size=     518kB time=00:00:34.10 bitrate= 124.4kbits/s    
frame=  346 fps=2.0 q=9.0 size=     518kB time=00:00:34.20 bitrate= 124.1kbits/s    
frame=  347 fps=2.0 q=9.0 size=     518kB time=00:00:34.30 bitrate= 123.8kbits/s    
frame=  348 fps=2.0 q=9.0 size=     518kB time=00:00:34.40 bitrate= 123.4kbits/s    
frame=  349 fps=2.0 q=9.0 size=     518kB time=00:00:34.50 bitrate= 123.1kbits/s    
frame=  350 fps=2.0 q=9.0 size=     519kB time=00:00:34.60 bitrate= 122.8kbits/s    
frame=  351 fps=1.9 q=9.0 size=     519kB time=00:00:34.70 bitrate= 122.5kbits/s    
frame=  352 fps=1.9 q=9.0 size=     519kB time=00:00:34.80 bitrate= 122.1kbits/s    
frame=  353 fps=1.9 q=9.0 size=     519kB time=00:00:34.90 bitrate= 121.8kbits/s    
frame=  354 fps=1.9 q=9.0 size=     519kB time=00:00:35.00 bitrate= 121.5kbits/s    
frame=  355 fps=1.9 q=9.0 size=     519kB time=00:00:35.10 bitrate= 121.2kbits/s    
frame=  356 fps=1.9 q=9.0 size=     519kB time=00:00:35.20 bitrate= 120.9kbits/s    
frame=  357 fps=1.9 q=9.0 size=     520kB time=00:00:35.30 bitrate= 120.6kbits/s    
frame=  358 fps=1.8 q=9.0 size=     520kB time=00:00:35.40 bitrate= 120.2kbits/s    
frame=  359 fps=1.8 q=9.0 size=     520kB time=00:00:35.50 bitrate= 119.9kbits/s    
frame=  360 fps=1.8 q=9.0 size=     520kB time=00:00:35.60 bitrate= 119.6kbits/s    
frame=  361 fps=1.8 q=9.0 size=     520kB time=00:00:35.70 bitrate= 119.3kbits/s    
frame=  362 fps=1.8 q=9.0 size=     520kB time=00:00:35.80 bitrate= 119.0kbits/s    
frame=  363 fps=1.8 q=9.0 size=     520kB time=00:00:35.90 bitrate= 118.7kbits/s    
frame=  364 fps=1.7 q=9.0 size=     521kB time=00:00:36.00 bitrate= 118.5kbits/s    
frame=  365 fps=1.7 q=9.0 size=     521kB time=00:00:36.10 bitrate= 118.2kbits/s    
frame=  366 fps=1.7 q=9.0 size=     521kB time=00:00:36.20 bitrate= 117.9kbits/s    
frame=  367 fps=1.7 q=9.0 size=     521kB time=00:00:36.30 bitrate= 117.6kbits/s    
frame=  368 fps=1.7 q=9.0 size=     521kB time=00:00:36.40 bitrate= 117.3kbits/s    
frame=  369 fps=1.7 q=9.0 size=     521kB time=00:00:36.50 bitrate= 117.0kbits/s    
frame=  370 fps=1.6 q=9.0 size=     522kB time=00:00:36.60 bitrate= 116.7kbits/s    
frame=  371 fps=1.6 q=9.0 size=     522kB time=00:00:36.70 bitrate= 116.5kbits/s    
frame=  372 fps=1.6 q=9.0 size=     522kB time=00:00:36.80 bitrate= 116.2kbits/s    
frame=  373 fps=1.6 q=9.0 size=     522kB time=00:00:36.90 bitrate= 115.9kbits/s    
frame=  374 fps=1.5 q=9.0 size=     522kB time=00:00:37.00 bitrate= 115.6kbits/s    
frame=  375 fps=1.5 q=9.0 size=     522kB time=00:00:37.10 bitrate= 115.3kbits/s    
frame=  376 fps=1.5 q=9.0 size=     522kB time=00:00:37.20 bitrate= 115.0kbits/s    
frame=  377 fps=1.5 q=9.0 size=     524kB time=00:00:37.30 bitrate= 115.1kbits/s    
frame=  378 fps=1.5 q=9.0 size=     524kB time=00:00:37.40 bitrate= 114.8kbits/s    
frame=  379 fps=1.5 q=9.0 size=     524kB time=00:00:37.50 bitrate= 114.5kbits/s    
frame=  380 fps=1.4 q=9.0 size=     524kB time=00:00:37.60 bitrate= 114.2kbits/s    
frame=  381 fps=1.4 q=9.0 size=     525kB time=00:00:37.70 bitrate= 114.0kbits/s    
frame=  382 fps=1.4 q=9.0 size=     525kB time=00:00:37.80 bitrate= 113.7kbits/s    
frame=  383 fps=1.4 q=9.0 size=     525kB time=00:00:37.90 bitrate= 113.4kbits/s    
frame=  384 fps=1.4 q=9.0 size=     525kB time=00:00:38.00 bitrate= 113.1kbits/s    
frame=  385 fps=1.4 q=9.0 size=     526kB time=00:00:38.10 bitrate= 113.2kbits/s    
frame=  386 fps=1.4 q=9.0 size=     527kB time=00:00:38.20 bitrate= 112.9kbits/s    
frame=  387 fps=1.4 q=9.0 size=     527kB time=00:00:38.30 bitrate= 112.7kbits/s    
frame=  388 fps=1.4 q=9.0 size=     527kB time=00:00:38.40 bitrate= 112.4kbits/s    
frame=  389 fps=1.4 q=9.0 size=     527kB time=00:00:38.50 bitrate= 112.1kbits/s    
frame=  390 fps=1.3 q=9.0 size=     527kB time=00:00:38.60 bitrate= 111.9kbits/s    
frame=  391 fps=1.3 q=9.0 size=     529kB time=00:00:38.70 bitrate= 111.9kbits/s    
frame=  392 fps=1.3 q=9.0 size=     529kB time=00:00:38.80 bitrate= 111.7kbits/s    
frame=  393 fps=1.3 q=9.0 size=     529kB time=00:00:38.90 bitrate= 111.4kbits/s    
frame=  394 fps=1.3 q=9.0 size=     531kB time=00:00:39.00 bitrate= 111.4kbits/s    
frame=  395 fps=1.3 q=9.0 size=     531kB time=00:00:39.10 bitrate= 111.2kbits/s    
frame=  396 fps=1.3 q=9.0 size=     531kB time=00:00:39.20 bitrate= 110.9kbits/s    
frame=  397 fps=1.3 q=9.0 size=     531kB time=00:00:39.30 bitrate= 110.7kbits/s    
frame=  398 fps=1.2 q=9.0 size=     531kB time=00:00:39.40 bitrate= 110.4kbits/s    
frame=  399 fps=1.2 q=9.0 size=     531kB time=00:00:39.50 bitrate= 110.2kbits/s    
frame=  400 fps=1.2 q=9.0 size=     533kB time=00:00:39.60 bitrate= 110.2kbits/s    
frame=  401 fps=1.2 q=9.0 size=     533kB time=00:00:39.70 bitrate= 110.0kbits/s    
frame=  402 fps=1.2 q=9.0 size=     533kB time=00:00:39.80 bitrate= 109.7kbits/s    
frame=  403 fps=1.2 q=9.0 size=     533kB time=00:00:39.90 bitrate= 109.5kbits/s    
frame=  404 fps=1.2 q=9.0 size=     534kB time=00:00:40.00 bitrate= 109.3kbits/s    
frame=  405 fps=1.2 q=11.0 size=     534kB time=00:00:40.10 bitrate= 109.0kbits/s    
frame=  406 fps=1.2 q=10.0 size=     534kB time=00:00:40.20 bitrate= 108.8kbits/s    
frame=  407 fps=1.2 q=10.0 size=     535kB time=00:00:40.30 bitrate= 108.8kbits/s    
frame=  408 fps=1.2 q=9.0 size=     536kB time=00:00:40.40 bitrate= 108.6kbits/s    
frame=  410 fps=1.2 q=9.0 size=     536kB time=00:00:40.60 bitrate= 108.1kbits/s    
frame=  411 fps=1.2 q=9.0 size=     536kB time=00:00:40.70 bitrate= 107.9kbits/s    
frame=  412 fps=1.2 q=9.0 size=     536kB time=00:00:40.80 bitrate= 107.6kbits/s    
frame=  413 fps=1.2 q=9.0 size=     536kB time=00:00:40.90 bitrate= 107.4kbits/s    
frame=  414 fps=1.2 q=9.0 size=     536kB time=00:00:41.00 bitrate= 107.1kbits/s    
frame=  415 fps=1.2 q=9.0 size=     536kB time=00:00:41.10 bitrate= 106.9kbits/s    
frame=  416 fps=1.2 q=9.0 size=     536kB time=00:00:41.20 bitrate= 106.7kbits/s    
frame=  417 fps=1.2 q=9.0 size=     537kB time=00:00:41.30 bitrate= 106.4kbits/s    
frame=  418 fps=1.2 q=9.0 size=     537kB time=00:00:41.40 bitrate= 106.2kbits/s    
frame=  419 fps=1.2 q=9.0 size=     537kB time=00:00:41.50 bitrate= 106.0kbits/s    
frame=  420 fps=1.2 q=9.0 size=     537kB time=00:00:41.60 bitrate= 105.7kbits/s    
frame=  421 fps=1.2 q=9.0 size=     537kB time=00:00:41.70 bitrate= 105.5kbits/s    
frame=  422 fps=1.2 q=9.0 size=     537kB time=00:00:41.80 bitrate= 105.3kbits/s    
frame=  423 fps=1.2 q=9.0 size=     537kB time=00:00:41.90 bitrate= 105.1kbits/s    
frame=  424 fps=1.2 q=9.0 size=     537kB time=00:00:42.00 bitrate= 104.8kbits/s    
frame=  425 fps=1.2 q=9.0 size=     538kB time=00:00:42.10 bitrate= 104.6kbits/s    
frame=  426 fps=1.2 q=9.0 size=     538kB time=00:00:42.20 bitrate= 104.4kbits/s    
frame=  427 fps=1.2 q=9.0 size=     538kB time=00:00:42.30 bitrate= 104.2kbits/s    
frame=  428 fps=1.2 q=9.0 size=     538kB time=00:00:42.40 bitrate= 104.0kbits/s    
frame=  429 fps=1.2 q=9.0 size=     538kB time=00:00:42.50 bitrate= 103.8kbits/s    
frame=  430 fps=1.2 q=9.0 size=     538kB time=00:00:42.60 bitrate= 103.5kbits/s    
frame=  431 fps=1.2 q=9.0 size=     539kB time=00:00:42.70 bitrate= 103.3kbits/s    
frame=  432 fps=1.2 q=9.0 size=     539kB time=00:00:42.80 bitrate= 103.1kbits/s    
frame=  433 fps=1.2 q=9.0 size=     539kB time=00:00:42.90 bitrate= 102.9kbits/s    
frame=  434 fps=1.2 q=9.0 size=     539kB time=00:00:43.00 bitrate= 102.7kbits/s    
frame=  435 fps=1.2 q=9.0 size=     539kB time=00:00:43.10 bitrate= 102.5kbits/s    
frame=  436 fps=1.2 q=9.0 size=     539kB time=00:00:43.20 bitrate= 102.2kbits/s    
frame=  437 fps=1.2 q=9.0 size=     539kB time=00:00:43.30 bitrate= 102.0kbits/s    
frame=  438 fps=1.2 q=9.0 size=     540kB time=00:00:43.40 bitrate= 101.8kbits/s    
frame=  439 fps=1.1 q=9.0 size=     540kB time=00:00:43.50 bitrate= 101.6kbits/s    
frame=  440 fps=1.1 q=9.0 size=     540kB time=00:00:43.60 bitrate= 101.4kbits/s    
frame=  441 fps=1.1 q=9.0 size=     540kB time=00:00:43.70 bitrate= 101.2kbits/s    
frame=  442 fps=1.1 q=9.0 size=     540kB time=00:00:43.80 bitrate= 101.0kbits/s    
frame=  443 fps=1.1 q=9.0 size=     540kB time=00:00:43.90 bitrate= 100.8kbits/s    
frame=  444 fps=1.1 q=9.0 size=     541kB time=00:00:44.00 bitrate= 100.6kbits/s    
frame=  445 fps=1.1 q=9.0 size=     541kB time=00:00:44.10 bitrate= 100.4kbits/s    
frame=  446 fps=1.1 q=9.0 size=     541kB time=00:00:44.20 bitrate= 100.2kbits/s    
frame=  447 fps=1.1 q=9.0 size=     541kB time=00:00:44.30 bitrate= 100.0kbits/s    
frame=  447 fps=1.1 q=-1.0 Lsize=     542kB time=00:00:44.70 bitrate=  99.3kbits/s    
video:538kB audio:0kB subtitle:0kB other streams:0kB global headers:0kB muxing overhead: 0.680147%
[libx264 @ 0xa24320] frame I:2     Avg QP:13.00  size: 85241
[libx264 @ 0xa24320] frame P:445   Avg QP: 9.50  size:   854
[libx264 @ 0xa24320] mb I  I16..4: 100.0%  0.0%  0.0%
[libx264 @ 0xa24320] mb P  I16..4:  0.9%  0.0%  0.0%  P16..4:  1.0%  0.0%  0.0%  0.0%  0.0%    skip:98.1%
[libx264 @ 0xa24320] coded y,uvDC,uvAC intra: 11.9% 9.1% 8.7% inter: 0.2% 0.7% 0.2%
[libx264 @ 0xa24320] i16 v,h,dc,p: 80% 19%  1%  0%
[libx264 @ 0xa24320] i8c dc,h,v,p: 77% 19%  4%  0%
[libx264 @ 0xa24320] kb/s:98.49
Exiting normally, received signal 2.
--40004LOG 12:03:15:345853300 Trapped SIGTERM or SIGINT so shutting down ffmpeg gracefully...
--40004LOG 12:03:15:430742800 Will kill VID_TOOL_PID=876 ...
--40004LOG 12:03:16:588504600 Tried to kill -SIGTERM VID_TOOL_PID=876
--40004LOG 12:03:16:705554400 Waiting up to 6s for VID_TOOL_PID=876 to end with SIGTERM...
--40004LOG 12:03:16:883405500 wait_pid successfully managed to SIGTERM:VID_TOOL_PID=876 within less than 6s
--40004LOG 12:03:16:905776000 Will try to fix the videos...
--40004LOG 12:03:17:699050600 Fixing perms for /home/seluser/videos/vid_chrome_or_firefox_40004.mkv*
--40004LOG 12:03:18:554580000 Changing video encoding from mkv to mp4...
--40004LOG 12:03:38:796415200 Conversion from mkv to mp4 FAILED! in within the 20s
--40004LOG 12:03:38:842740000 Optimizing /home/seluser/videos/vid_chrome_or_firefox_40004.mp4 for HTTP streaming...
Error opening file /home/seluser/videos/vid_chrome_or_firefox_40004.mp4: Invalid IsoMedia File
--40004LOG 12:03:38:969770600 MP4Box got errors meaning the mp4 video file is corrupted, trying again...
Error opening file /home/seluser/videos/vid_chrome_or_firefox_40004.mp4: Invalid IsoMedia File
--40004LOG 12:03:40:027141200 MP4Box got errors meaning the mp4 video file is corrupted, trying again...
Error opening file /home/seluser/videos/vid_chrome_or_firefox_40004.mp4: Invalid IsoMedia File
--40004LOG 12:03:41:064896400 MP4Box got errors meaning the mp4 video file is corrupted, trying again...
Error opening file /home/seluser/videos/vid_chrome_or_firefox_40004.mp4: Invalid IsoMedia File
--40004LOG 12:03:42:103042500 MP4Box got errors meaning the mp4 video file is corrupted, trying again...
Error opening file /home/seluser/videos/vid_chrome_or_firefox_40004.mp4: Invalid IsoMedia File
--40004LOG 12:03:43:153191500 MP4Box got errors meaning the mp4 video file is corrupted, trying again...
Error opening file /home/seluser/videos/vid_chrome_or_firefox_40004.mp4: Invalid IsoMedia File
--40004LOG 12:03:44:191814400 MP4Box got errors meaning the mp4 video file is corrupted, trying again...
Error opening file /home/seluser/videos/vid_chrome_or_firefox_40004.mp4: Invalid IsoMedia File
--40004LOG 12:03:45:224409700 MP4Box got errors meaning the mp4 video file is corrupted, trying again...
Error opening file /home/seluser/videos/vid_chrome_or_firefox_40004.mp4: Invalid IsoMedia File
--40004LOG 12:03:46:252987500 MP4Box got errors meaning the mp4 video file is corrupted, trying again...
--40004LOG 12:03:46:871568700 Failed! to mp4box_retry.sh within 8s
--40004LOG 12:03:46:891483000 ffmpeg shutdown complete.
